# xmcd
# 
# Track frame offsets:
#     150
#     24429
#     39613
#     55708
#     69137
#     90038
#     104031
#     117997
#     141853
#     160170
#     174698
#     189649
#     207776
#     232607
#     245123
#     256365
#     274102
#     287546
#     304053
#     315158
# 
# Disc length: 4441
# 
# Revision: 0
# Processed by: cddbd v1.5.2PL0 Copyright (c) Steve Scherf et al.
# Submitted via: fre:ac v1.0.17
# 
DISCID=0a115714
DTITLE=Band, The - Music From Big Pink
DYEAR=1968
DGENRE=Folk/Rock
TTITLE0=Tears of Rage
TTITLE1=To Kingdom Come
TTITLE2=In a Station
TTITLE3=Caledonia Mission
TTITLE4=The Weight
TTITLE5=We Can Talk
TTITLE6=Long Black Veil
TTITLE7=Chest Fever
TTITLE8=Lonesome Suzie
TTITLE9=This Wheel's on Fire
TTITLE10=I Shall Be Released
TTITLE11=Yazoo Street Scandal [outtake]
TTITLE12=Tears of Rage [alternate take]
TTITLE13=Katie's Been Gone [outtake]
TTITLE14=If I Lose [outtake]
TTITLE15=Long Distance Operator [outtake]
TTITLE16=Lonesone Suzie [alternate take]
TTITLE17=Orange Juice Blues (Blues For Breakfast) [outtake-demo]
TTITLE18=Key to the Highway [outtake]
TTITLE19=Ferdinand the Imposter [outtake-demo]
EXTD=BIG PINK\nA pink house seated in the sun\nof Overlook Mountain in\nWest Saugerties, New York.\nBig Pink bore this music and\nthese songs along its way.\nIt's the first witness of\nthis album that's been thought\nand composed right there\ninside its w
EXTD=alls.\n\nTHE BAND\nJaime Robbie Robertson\nRick Danko\nRichard Manuel\nGarth Hudson\nLevon Helm\n\nJohn Simon, Producer
EXTT0=
EXTT1=
EXTT2=
EXTT3=
EXTT4=
EXTT5=
EXTT6=
EXTT7=
EXTT8=
EXTT9=
EXTT10=
EXTT11=
EXTT12=
EXTT13=
EXTT14=
EXTT15=
EXTT16=
EXTT17=
EXTT18=
EXTT19=
PLAYORDER=
